# xmcd
#
# Track frame offsets: 
#        150
#        45876
#        126796
#        166419
#        185383
#
# Disc length: 3980 seconds
#
# Revision: 5
# Processed by: cddbd v1.5.2PL0 Copyright (c) Steve Scherf et al.
# Submitted via: ExactAudioCopy v1.1
#
DISCID=350f8a05
DTITLE=レナード・バーンスタイン指揮ニューヨーク・フィルハーモニック マーサ・リプトン (ms) 他 - The Complete M
DTITLE=ahler Symphonies CD 5 - Symphony No. 3
DYEAR=1961
DGENRE=Classical
TTITLE0=マーラー 交響曲第3番 ニ短調 第2部 - II. Tempo di Menuetto, Sehr mäßig
TTITLE1=マーラー 交響曲第3番 ニ短調 第2部 - III. Comodo. Scherzando. Ohne Hast 
TTITLE2=マーラー 交響曲第3番 ニ短調 第2部 - IV a. Sehr langsam. Misterioso. Durchaus
TTITLE2=ppp "O Mensch! Gib Acht!"
TTITLE3=マーラー 交響曲第3番 ニ短調 第2部 - IV b. Lustig im Tempo und keck im Ausdru
TTITLE3=ck "Es sungen drei Engel"
TTITLE4=マーラー 交響曲第3番 ニ短調 第2部 - IV c. Langsam. Ruhevoll. Empfunden 
EXTD=YEAR: 1962
EXTT0=
EXTT1=
EXTT2=
EXTT3=
EXTT4=
PLAYORDER=
